<svg xmlns="https://www.w3.org/2000/svg" xmlns:xlink="https://www.w3.org/1999/xlink" viewBox="0 0 56.13 51.94"><defs><style>.cls-1,.cls-4{fill:none;}.cls-2{clip-path:url(#clip-path);}.cls-3{fill:#ee8128;}.cls-4{stroke:#b1391a;stroke-width:0.67px;}.cls-5{fill:#fff;}</style><clipPath id="clip-path" transform="translate(0 0)"><rect class="cls-1" width="56.13" height="51.95"/></clipPath></defs><title>1</title><g id="Capa_2" data-name="Capa 2"><g id="Capa_1-2" data-name="Capa 1"><g class="cls-2"><path class="cls-3" d="M12.6,2.53S15,.7,18.74,3s5.7,3,8,1.29S31.92-.3,35,.46s3.74,3.31,5.32,5.42,4.51,1.39,5.42,1.44,2.54.62,2.45,3.31.24,3.84,3.59,4.8,5.09,3.93,3.31,6.32-4,3.5-4.27,5.95,2.11,3.88,2,5.27-2.59,2.64-2.59,4.37,1.58,5.08-1.06,6.85-5.51.1-8.24-.81-4.75-.24-7.87,5.13-8.92,2.64-10.83.19-2.07-4.41-7.82-2.49-6.95-2-6.76-3.45.67-5.23-1.2-6.09-3.93-1-3.21-3,2.44-3.31-.19-5.37S.23,24.87.37,23.19,2.15,19,5.55,17.3s3.84-3.12,3.6-6.19.24-6.47,3.45-8.58" transform="translate(0 0)"/><path class="cls-4" d="M12.6,2.53S15,.7,18.74,3s5.7,3,8,1.29S31.92-.3,35,.46s3.74,3.31,5.32,5.42,4.51,1.39,5.42,1.44,2.54.62,2.45,3.31.24,3.84,3.59,4.8,5.09,3.93,3.31,6.32-4,3.5-4.27,5.95,2.11,3.88,2,5.27-2.59,2.64-2.59,4.37,1.58,5.08-1.06,6.85-5.51.1-8.24-.81-4.75-.24-7.87,5.13-8.92,2.64-10.83.19-2.07-4.41-7.82-2.49-6.95-2-6.76-3.45.67-5.23-1.2-6.09-3.93-1-3.21-3,2.44-3.31-.19-5.37S.23,24.87.37,23.19,2.15,19,5.55,17.3s3.84-3.12,3.6-6.19S9.39,4.64,12.6,2.53Z" transform="translate(0 0)"/></g><path class="cls-5" d="M28.92,17.12h-.07l-4.12,2.22-.62-2.44,5.17-2.76H32V37.81H28.92Z" transform="translate(0 0)"/></g></g></svg>