<svg id="Capa_1" data-name="Capa 1" xmlns="https://www.w3.org/2000/svg" xmlns:xlink="https://www.w3.org/1999/xlink" viewBox="0 0 1625.43 431.89"><defs><style>.cls-1,.cls-8{fill:none;}.cls-2{clip-path:url(#clip-path);}.cls-3{opacity:0.18;}.cls-4{clip-path:url(#clip-path-2);}.cls-5{clip-path:url(#clip-path-3);}.cls-6{fill:#e7497d;}.cls-7{clip-path:url(#clip-path-4);}.cls-8{stroke:#1a171b;stroke-linecap:round;stroke-linejoin:round;stroke-width:1.18px;}.cls-9{font-size:24px;fill:#1a171b;font-family:MyriadPro-Regular, Myriad Pro;}</style><clipPath id="clip-path" transform="translate(-4.54 14.62)"><rect class="cls-1" x="694.53" y="109.47" width="921.26" height="1"/></clipPath><clipPath id="clip-path-2" transform="translate(-4.54 14.62)"><rect class="cls-1" x="679.36" y="-15.62" width="951.61" height="126.09"/></clipPath><clipPath id="clip-path-3" transform="translate(-4.54 14.62)"><rect class="cls-1" x="694.53" y="109.47" width="921.3" height="1"/></clipPath><clipPath id="clip-path-4" transform="translate(-4.54 14.62)"><rect class="cls-1" x="2.27" y="6.11" width="594.94" height="419.67"/></clipPath></defs><title>principal</title><g class="cls-2"><g class="cls-3"><g class="cls-4"><g class="cls-5"><rect class="cls-6" x="675.82" width="949.61" height="124.09"/></g></g></g></g><g class="cls-7"><path class="cls-8" d="M191.84,59.58S340.48,16.69,506.15,7.88c0,0,85.19,17,89.3,21.74l-4.11,196.81-258.5,39.36S324.62,105.4,329.9,79C329.9,79,228.85,61.34,191.84,59.58Z" transform="translate(-4.54 14.62)"/><line class="cls-8" x1="590.92" y1="44.24" x2="325.37" y2="93.59"/></g><line class="cls-8" x1="187.3" y1="74.2" x2="180.55" y2="113.56"/><polyline class="cls-8" points="328.3 280.41 304.66 267.63 311.27 349.15 433.76 333.68"/><polyline class="cls-8" points="566.24 244.13 564.48 313.31 546.12 316.1"/><g class="cls-7"><path class="cls-8" d="M497.34,248.17c16.57-2.55,48,2.35,52.29,42.3,6,55.4-21,84-44.06,87.92-19.7,3.34-75.91,3.18-65.8-71.47C446.82,254.82,477.22,251.26,497.34,248.17Z" transform="translate(-4.54 14.62)"/><path class="cls-8" d="M523.19,250.91s-36.42-13.32-52.29,27.81.88,110.74,47.74,95" transform="translate(-4.54 14.62)"/><path class="cls-8" d="M512.62,263.44S533,260.91,532,303.2c-1,40.53-12.33,50.13-24.28,50.72S482.65,342.75,485,304.37C487.45,264.34,512.62,263.44,512.62,263.44Z" transform="translate(-4.54 14.62)"/><path class="cls-8" d="M352.38,329.83s5.28,25.56,17.18,26.58c5.95.52,18.35.13,30.84-1.76,13.37-2,22.84-14.32,22.92-33.63" transform="translate(-4.54 14.62)"/><path class="cls-8" d="M391.3,325.18s-1.47,29,18.5,25.76" transform="translate(-4.54 14.62)"/><path class="cls-8" d="M399.34,324s-.11,10.54,6.5,10.54,10-9.26,9.1-12.34" transform="translate(-4.54 14.62)"/><path class="cls-8" d="M309.19,253l-.44-138.21-126.11-16s-45,6.65-65.41,19.19c0,0,82.25-2,119.06,8.61,0,0-28.59,32.51-19.58,87.35l72.46-6.66,3-89.21" transform="translate(-4.54 14.62)"/></g><line class="cls-8" x1="231.76" y1="141.17" x2="304.22" y2="129.42"/><g class="cls-7"><path class="cls-8" d="M216.71,213.9c-35.64-10.19-145-6-145-6,16.45-68.44,45.53-90,45.53-90" transform="translate(-4.54 14.62)"/><path class="cls-8" d="M71.7,207.92s-59.34,32.9-60.52,53.17S16.57,351,16.57,351" transform="translate(-4.54 14.62)"/></g><polyline class="cls-8" points="311.27 349.15 310.48 382.05 263.38 389.98"/><g class="cls-7"><path class="cls-8" d="M172.55,354.6l-16.84,9s-7.64-82.54-1.47-93.71,42.79-45.72,62.47-56" transform="translate(-4.54 14.62)"/><path class="cls-8" d="M15,341.58s-11,2.74-9.79,9.79,5.09,18,5.09,18,115.15,21.15,149.62,17.23l13.71-5.87" transform="translate(-4.54 14.62)"/><path class="cls-8" d="M15.59,346.87s-6.46,2.35-1.57,3.72,83.62,15.86,141.69,13" transform="translate(-4.54 14.62)"/><path class="cls-8" d="M59.07,377.42S62,403.71,71.26,405.18s40.39,5.87,45.38,1.61,10.28-12.19,10.72-20.71" transform="translate(-4.54 14.62)"/><path class="cls-8" d="M102.1,383.58s-5.43,27.25,13.8,23.73" transform="translate(-4.54 14.62)"/><path class="cls-8" d="M108.71,384.32s-1.76,9.55,4.26,10,7.64-8.67,7.64-8.67" transform="translate(-4.54 14.62)"/><path class="cls-8" d="M226.8,280.18s24.38-2.93,31.43,4.71,22.62,32.9,10.87,84.59-39.66,45.83-47.3,47-38.18-2.36-45.23-22.92-4.83-62.89,6.75-90.18C191.55,284,215.93,281.36,226.8,280.18Z" transform="translate(-4.54 14.62)"/><path class="cls-8" d="M256.91,283.56s-41-21.88-44.21,64.19c-1.82,48.44,22.42,76.28,38,59.19" transform="translate(-4.54 14.62)"/><path class="cls-8" d="M250.2,299.67s15.67.39,10.57,46.81-21.93,42.3-21.93,42.3-18.18.49-11.55-47.79C233.55,295.36,250.2,299.67,250.2,299.67Z" transform="translate(-4.54 14.62)"/><path class="cls-8" d="M78.65,207.63S49.86,246.4,48.49,263.24l-37.21.3" transform="translate(-4.54 14.62)"/><path class="cls-8" d="M182.73,208.8s-62.17,28.59-71.57,60.52l42.49,1.76" transform="translate(-4.54 14.62)"/></g><line class="cls-8" x1="43.95" y1="277.87" x2="106.62" y2="283.94"/><line class="cls-8" x1="472.24" y1="66.69" x2="471.65" y2="257.63"/><line class="cls-8" x1="403.87" y1="79.03" x2="403.31" y2="268.79"/><line class="cls-8" x1="535.92" y1="54.35" x2="535.1" y2="248.52"/><text class="cls-9" transform="translate(238.46 107.88)">5</text><text class="cls-9" transform="translate(391.46 62.88)">5</text><text class="cls-9" transform="translate(360.46 189.88)">3</text><text class="cls-9" transform="translate(368.46 314.88)">2</text><text class="cls-9" transform="translate(26.46 271.88)">2</text><text class="cls-9" transform="translate(135.46 270.88)">2</text><text class="cls-9" transform="translate(431.46 176.88)">3</text><text class="cls-9" transform="translate(500.46 163.88)">3</text><text class="cls-9" transform="translate(558.46 150.88)">3</text><text class="cls-9" transform="translate(193.46 133.88)">1</text><text class="cls-9" transform="translate(81.46 262.88)">1</text><text class="cls-9" transform="translate(235.46 272.88)">1</text><text class="cls-9" transform="translate(63.46 327.88)">1</text><text class="cls-9" transform="translate(58.46 391.88)">6</text><text class="cls-9" transform="translate(72.46 417.88)">4</text><text class="cls-9" transform="translate(184.46 382.88)">4</text><text class="cls-9" transform="translate(365.46 363.88)">4</text><text class="cls-9" transform="translate(444.46 356.88)">4</text></svg>